<?xml version="1.0" encoding="utf-8"?>
<!-- Generator: Adobe Illustrator 25.1.0, SVG Export Plug-In . SVG Version: 6.00 Build 0)  -->
<svg version="1.1" id="Layer_1" xmlns="http://www.w3.org/2000/svg" xmlns:xlink="http://www.w3.org/1999/xlink" x="0px" y="0px"
	 viewBox="0 0 720 720" style="enable-background:new 0 0 720 720;" xml:space="preserve">
<style type="text/css">
	.st0{fill:#2E1D52;}
	.st1{fill:#5F2910;}
	.st2{fill:#88181B;}
	.st3{fill:#A1A537;}
	.st4{fill:#BBB790;}
</style>
<g>
	<path class="st0" d="M243.7,147.5h428c-12.3-28.6-31.2-53.7-54.8-73.2c-15.4-12.8-32.7-23.2-51.5-30.8
		c-22.7-9.3-47.5-14.3-73.5-14.3c0,0-3.4-0.3-9.9-0.1c-8.3,0.3-21.6,1.5-38.8,5.4c-24.8,5.4-57.7,16.2-96.1,37.4
		c-8.4,4.6-17.1,9.8-26,15.5C296.7,102.9,270.8,122.6,243.7,147.5z"/>
	<path class="st1" d="M118.3,295.7h555.9c8.6-22,13.3-45.9,13.3-70.9c0-27.5-5.7-53.6-15.9-77.3h-428c-10.4,9.5-20.9,19.8-31.6,30.8
		v0c-4.4,4.6-8.9,9.3-13.4,14.3C172.4,221.6,145.4,255.7,118.3,295.7z"/>
	<path class="st2" d="M77.2,360.7v2.3c17.2,29.5,34.3,56.4,51.3,81h549.9c-9.7-30.7-26.7-58.1-49-80.1
		c19.3-19.2,34.7-42.3,44.8-68.2H118.3C104.7,315.8,91,337.4,77.2,360.7z"/>
	<path class="st3" d="M128.6,443.9c23.7,34.3,47.2,64,70.2,89.6c4.5,5.1,9,10,13.4,14.6c15.4,16.4,30.5,30.9,45.2,43.9H666
		c13.7-26.7,21.5-57.1,21.5-89.2c0-20.5-3.2-40.3-9.1-59H128.6z"/>
	<path class="st4" d="M257.3,592.2c22.2,19.6,43.5,35.7,63.7,48.8c8.9,5.8,17.6,11.1,26,15.8c38.4,21.4,71.4,32.1,96.1,37.3
		c17.2,3.6,30.5,4.7,38.8,4.8c6.5,0.2,9.9-0.2,9.9-0.2c26,0,50.8-5.1,73.5-14.3c18.7-7.6,36-18.1,51.5-30.8
		c20.3-16.8,37.1-37.6,49.2-61.3H257.3z"/>
</g>
</svg>
