<?xml version="1.0" encoding="utf-8"?>
<!-- Generator: Adobe Illustrator 25.1.0, SVG Export Plug-In . SVG Version: 6.00 Build 0)  -->
<svg version="1.1" id="Layer_1" xmlns="http://www.w3.org/2000/svg" xmlns:xlink="http://www.w3.org/1999/xlink" x="0px" y="0px"
	 viewBox="0 0 720 720" style="enable-background:new 0 0 720 720;" xml:space="preserve">
<style type="text/css">
	.st0{fill:#2E1D52;}
	.st1{fill:#5F2910;}
	.st2{fill:#88181B;}
	.st3{fill:#A1A537;}
	.st4{fill:#BBB790;}
	.st5{fill:none;}
	.st6{font-family:'BelyDisplay-Regular';}
	.st7{font-size:123px;}
</style>
<path class="st0" d="M630.4,92.98H100.86c32.68-39.5,82.23-64.66,137.63-64.66c49.72,0,94.72,20.36,127.14,53.13
	c32.33-32.77,77.42-53.13,127.14-53.13C548.18,28.32,597.63,53.48,630.4,92.98z"/>
<path class="st1" d="M671.82,216.28H59.53c-0.17-5.94,0.09-9.09,0.09-9.09c0-23.77,4.63-46.4,13.11-67.2
	c6.9-17.13,16.43-32.94,28.14-47.01H630.4c11.62,14.07,21.15,29.89,28.14,47.01c8.48,20.8,13.11,43.43,13.11,67.2
	C671.65,207.19,672,210.34,671.82,216.28z"/>
<path class="st2" d="M671.82,216.28c-0.09,7.6-1.05,19.75-4.37,35.48c-4.72,22.63-14.51,52.78-34.08,87.91H98.68
	c-19.4-35.13-29.27-65.28-34.25-87.91c-3.5-15.73-4.63-27.88-4.89-35.48H671.82z"/>
<path class="st3" d="M633.37,339.66c-4.28,7.69-9.09,15.64-14.42,23.77c-19.92,30.67-47.27,64.31-84.76,99.53H196.02
	c-36.61-35.22-63.53-68.86-83.19-99.53c-5.24-8.13-9.96-16.08-14.16-23.77H633.37z"/>
<path class="st4" d="M534.19,462.96c-4.28,4.02-8.74,8.13-13.37,12.23c-40.28,36.09-91.4,73.49-155.98,111.06h-2.1
	c-63.53-37.4-113.86-74.89-153.62-111.06c-4.54-4.11-8.91-8.21-13.11-12.23H534.19z"/>
<rect x="22.23" y="595.96" class="st5" width="675.53" height="105.32"/>
<text transform="matrix(1 0 0 1 212.0329 688.207)" class="st2 st6 st7">Love </text>
</svg>
