<?xml version="1.0" encoding="utf-8"?>
<!-- Generator: Adobe Illustrator 25.1.0, SVG Export Plug-In . SVG Version: 6.00 Build 0)  -->
<svg version="1.1" id="Layer_1" xmlns="http://www.w3.org/2000/svg" xmlns:xlink="http://www.w3.org/1999/xlink" x="0px" y="0px"
	 viewBox="0 0 720 720" style="enable-background:new 0 0 720 720;" xml:space="preserve">
<style type="text/css">
	.st0{fill:#2E1D52;}
	.st1{fill:#5F2910;}
	.st2{fill:#88181B;}
	.st3{fill:#A1A537;}
	.st4{fill:#BBB790;}
</style>
<g>
	<path class="st0" d="M521.1,147.5h-428c12.3-28.6,31.2-53.7,54.8-73.2c15.4-12.8,32.7-23.2,51.5-30.8c22.7-9.3,47.5-14.3,73.5-14.3
		c0,0,3.4-0.3,9.9-0.1c8.3,0.3,21.6,1.5,38.8,5.4c24.8,5.4,57.7,16.2,96.1,37.4c8.4,4.6,17.1,9.8,26,15.5
		C468.1,102.9,494,122.6,521.1,147.5z"/>
	<path class="st1" d="M646.5,295.7H90.5c-8.6-22-13.3-45.9-13.3-70.9c0-27.5,5.7-53.6,15.9-77.3h428c10.4,9.5,20.9,19.8,31.6,30.8v0
		c4.4,4.6,8.9,9.3,13.4,14.3C592.4,221.6,619.3,255.7,646.5,295.7z"/>
	<path class="st2" d="M687.5,360.7v2.3c-17.2,29.5-34.3,56.4-51.3,81H86.3c9.7-30.7,26.7-58.1,49-80.1
		c-19.3-19.2-34.7-42.3-44.8-68.2h555.9C660.1,315.8,673.8,337.4,687.5,360.7z"/>
	<path class="st3" d="M636.2,443.9c-23.7,34.3-47.2,64-70.2,89.6c-4.5,5.1-9,10-13.4,14.6c-15.4,16.4-30.5,30.9-45.2,43.9H98.8
		c-13.7-26.7-21.5-57.1-21.5-89.2c0-20.5,3.2-40.3,9.1-59H636.2z"/>
	<path class="st4" d="M507.5,592.2c-22.2,19.6-43.5,35.7-63.7,48.8c-8.9,5.8-17.6,11.1-26,15.8c-38.4,21.4-71.4,32.1-96.1,37.3
		c-17.2,3.6-30.5,4.7-38.8,4.8c-6.5,0.2-9.9-0.2-9.9-0.2c-26,0-50.8-5.1-73.5-14.3c-18.7-7.6-36-18.1-51.5-30.8
		c-20.3-16.8-37.1-37.6-49.2-61.3H507.5z"/>
</g>
<path class="st0" d="M1598.3-116.7h-529.5c32.7-39.5,82.2-64.7,137.6-64.7c49.7,0,94.7,20.4,127.1,53.1
	c32.3-32.8,77.4-53.1,127.1-53.1C1516.1-181.4,1565.5-156.2,1598.3-116.7z"/>
<path class="st1" d="M1639.7,6.6h-612.3c-0.2-5.9,0.1-9.1,0.1-9.1c0-23.8,4.6-46.4,13.1-67.2c6.9-17.1,16.4-32.9,28.1-47h529.5
	c11.6,14.1,21.2,29.9,28.1,47c8.5,20.8,13.1,43.4,13.1,67.2C1639.5-2.5,1639.9,0.7,1639.7,6.6z"/>
<path class="st2" d="M1639.7,6.6c-0.1,7.6-1,19.8-4.4,35.5c-4.7,22.6-14.5,52.8-34.1,87.9h-534.7c-19.4-35.1-29.3-65.3-34.2-87.9
	c-3.5-15.7-4.6-27.9-4.9-35.5L1639.7,6.6L1639.7,6.6z"/>
<path class="st3" d="M1601.2,130c-4.3,7.7-9.1,15.6-14.4,23.8c-19.9,30.7-47.3,64.3-84.8,99.5h-338.2
	c-36.6-35.2-63.5-68.9-83.2-99.5c-5.2-8.1-10-16.1-14.2-23.8H1601.2z"/>
<path class="st4" d="M1502.1,253.3c-4.3,4-8.7,8.1-13.4,12.2c-40.3,36.1-91.4,73.5-156,111.1h-2.1
	c-63.5-37.4-113.9-74.9-153.6-111.1c-4.5-4.1-8.9-8.2-13.1-12.2H1502.1z"/>
</svg>
