<?xml version="1.0" encoding="utf-8"?>
<!-- Generator: Adobe Illustrator 25.1.0, SVG Export Plug-In . SVG Version: 6.00 Build 0)  -->
<svg version="1.1" id="Layer_1" xmlns="http://www.w3.org/2000/svg" xmlns:xlink="http://www.w3.org/1999/xlink" x="0px" y="0px"
	 viewBox="0 0 720 216" style="enable-background:new 0 0 720 216;" xml:space="preserve">
<style type="text/css">
	.st0{fill:#2F1952;}
	.st1{fill:#5F270D;}
	.st2{fill:#871719;}
	.st3{fill:#A1A537;}
	.st4{fill:#BBB68F;}
</style>
<g>
	<polygon class="st0" points="0.67,75.83 36.67,75.83 28.62,80.71 28.62,86.32 8.72,86.32 8.72,80.71 	"/>
	<path class="st0" d="M250.89,82.25c0,1.49-0.22,2.85-0.65,4.07h-18.8c-0.42-1.22-0.64-2.58-0.64-4.07
		c0-5.97,3.62-10.04,10.04-10.04C247.27,72.21,250.89,76.28,250.89,82.25z"/>
	<path class="st0" d="M394.47,79.54l-1.71,6.78h-21.31c-5.05-6.27-8.87-8.14-12.44-8.14c-3.56,0-6.38,2.46-6.94,8.14h-8.16
		c5.67-7.77,15.06-12.3,26.86-12.3C380.09,74.02,387.87,76.1,394.47,79.54z"/>
	<polygon class="st0" points="452.91,81.26 476.16,73.11 476.16,86.32 458.07,86.32 458.07,85.69 	"/>
	<path class="st0" d="M709.65,85.41h-60.6c3.74-4.52,9.41-7.4,15.75-7.4c5.69,0,10.84,2.33,14.55,6.08
		c3.7-3.75,8.86-6.08,14.55-6.08C700.24,78.01,705.9,80.89,709.65,85.41z"/>
	<rect x="8.72" y="86.32" class="st1" width="19.9" height="14.11"/>
	<path class="st1" d="M105.34,100.43H83.22c-1.72-1.48-3.33-2.35-4.73-2.35c-1.62,0-2.78,0.84-3.3,2.35h-4.12
		c4.26-3.5,9.98-5.61,16.65-5.61C94.75,94.82,100.85,96.82,105.34,100.43z"/>
	<polygon class="st1" points="111.48,96.63 143.05,96.63 137.86,100.43 116.67,100.43 	"/>
	<polygon class="st1" points="148.29,96.63 165.3,96.63 160.11,100.43 153.72,100.43 	"/>
	<path class="st1" d="M199.28,100.43h-16.43c-1.47-1.54-3.08-2.44-4.51-2.44c-1.56,0-2.68,0.87-3.25,2.44h-3.89
		c3.92-3.5,9.2-5.61,15.55-5.61C192.41,94.82,196.9,97.02,199.28,100.43z"/>
	<polygon class="st1" points="231.3,100.43 249.89,93.92 249.89,100.43 	"/>
	<path class="st1" d="M231.44,86.32h18.8c-1.3,3.74-4.55,6.06-9.4,6.06C236,92.38,232.74,90.06,231.44,86.32z"/>
	<polygon class="st1" points="261.82,100.43 280.41,93.92 280.41,100.43 	"/>
	<path class="st1" d="M307.94,100.43h-24.45c4.69-3.67,9.14-6.06,14.2-6.06C302.72,94.37,306.16,96.42,307.94,100.43z"/>
	<path class="st1" d="M351.96,88.49c0,4.14,0.61,8.15,1.71,11.94h-15.31c0.78-5.42,2.69-10.19,5.55-14.11h8.16
		C352,87,351.96,87.72,351.96,88.49z"/>
	<path class="st1" d="M371.45,86.32h21.31l-3.56,14.11h-8.52C377.16,94.23,374.13,89.65,371.45,86.32z"/>
	<path class="st1" d="M424.96,94.82c7.03,0,13.14,2,17.63,5.61h-22.12c-1.72-1.48-3.33-2.35-4.73-2.35c-1.62,0-2.78,0.84-3.3,2.35
		h-4.12C412.58,96.93,418.3,94.82,424.96,94.82z"/>
	<rect x="458.07" y="86.32" class="st1" width="18.09" height="14.11"/>
	<path class="st1" d="M525.89,100.43h-22.12c-1.72-1.48-3.33-2.35-4.73-2.35c-1.62,0-2.78,0.84-3.3,2.35h-4.12
		c4.26-3.5,9.98-5.61,16.64-5.61C515.29,94.82,521.4,96.82,525.89,100.43z"/>
	<polygon class="st1" points="541.92,100.43 559.76,94.46 559.76,100.43 	"/>
	<path class="st1" d="M574.96,94.73c0.63,0,1.17,0.09,1.72,0.28v5.42h-12.17C568.27,96.83,572.04,94.73,574.96,94.73z"/>
	<path class="st1" d="M616.16,97.45l-0.74,2.98h-10.83l-2.54-3.62c-0.46-0.18-1.09-0.27-1.54-0.27c-3.5,0-5.46,1.75-5.88,3.89h-9.34
		c3.31-3.55,8.79-5.61,15.85-5.61C607.02,94.82,611.73,95.82,616.16,97.45z"/>
	<path class="st1" d="M714.39,99.52h-70.07c-0.02-0.68,0.01-1.04,0.01-1.04c0-2.72,0.53-5.31,1.5-7.69
		c0.79-1.96,1.88-3.77,3.22-5.38h60.6c1.33,1.61,2.42,3.42,3.22,5.38c0.97,2.38,1.5,4.97,1.5,7.69
		C714.37,98.48,714.41,98.84,714.39,99.52z"/>
	<rect x="8.72" y="100.43" class="st2" width="19.9" height="14.12"/>
	<path class="st2" d="M57.39,113.46h0.09v1.09h-0.53C57.1,114.19,57.24,113.83,57.39,113.46z"/>
	<path class="st2" d="M74.87,102.51c0,2.72,1.47,7.17,3.73,12.04H63.1c0.83-5.64,3.66-10.59,7.97-14.12h4.12
		C74.98,101.02,74.87,101.72,74.87,102.51z"/>
	<path class="st2" d="M113.17,114.55H93.86c-3.3-5.72-7.18-11.15-10.64-14.12h22.12C109.58,103.83,112.38,108.65,113.17,114.55z"/>
	<polygon class="st2" points="136.99,101.07 141.9,114.55 123.8,114.55 117.54,101.07 116.67,100.43 137.86,100.43 	"/>
	<polygon class="st2" points="153.72,100.43 160.11,100.43 159.24,101.07 152.65,114.55 149.77,114.55 154.63,101.07 	"/>
	<path class="st2" d="M174.63,103.33c0,3.81,1,7.64,2.69,11.22h-13.56c0.88-5.62,3.46-10.58,7.44-14.12h3.89
		C174.78,101.23,174.63,102.2,174.63,103.33z"/>
	<path class="st2" d="M199.28,100.43c1.2,1.72,1.86,3.76,1.86,5.97c0,2.89-0.85,5.63-2.52,8.15h-11.21c0.05-0.65,0.07-1.31,0.07-2
		c0-4.98-2.1-9.48-4.63-12.12H199.28z"/>
	<polygon class="st2" points="231.3,100.43 249.89,100.43 249.89,114.55 231.8,114.55 231.8,106.49 226.64,102.06 	"/>
	<path class="st2" d="M307.94,100.43c0.94,2.11,1.42,4.77,1.42,7.96v6.16h-18.1v-2.27c0-7.05-1.71-9.41-5.42-9.41
		c-1.81,0-3.62,0.55-5.43,1.36v10.32h-18.09v-8.06l-5.16-4.43l4.66-1.63h18.59v2.54c1.04-0.9,2.07-1.75,3.08-2.54H307.94z"/>
	<path class="st2" d="M353.67,100.43c1.52,5.19,3.98,9.97,7.1,14.12h-22.09c-0.49-2.65-0.74-5.43-0.74-8.33c0-2,0.14-3.94,0.42-5.79
		H353.67z"/>
	<path class="st2" d="M380.68,100.43h8.52l-2.69,10.68h-0.09C384.37,107.1,382.46,103.56,380.68,100.43z"/>
	<path class="st2" d="M412.12,102.51c0,2.72,1.47,7.17,3.73,12.04h-15.5c0.83-5.64,3.66-10.59,7.97-14.12h4.12
		C412.23,101.02,412.12,101.72,412.12,102.51z"/>
	<path class="st2" d="M450.41,114.55H431.1c-3.29-5.72-7.17-11.15-10.63-14.12h22.12C446.82,103.83,449.63,108.65,450.41,114.55z"/>
	<rect x="458.07" y="100.43" class="st2" width="18.09" height="14.12"/>
	<path class="st2" d="M495.42,102.51c0,2.72,1.47,7.17,3.73,12.04h-15.5c0.83-5.64,3.66-10.59,7.97-14.12h4.12
		C495.53,101.02,495.42,101.72,495.42,102.51z"/>
	<path class="st2" d="M533.71,114.55H514.4c-3.29-5.72-7.17-11.15-10.63-14.12h22.12C530.12,103.83,532.93,108.65,533.71,114.55z"/>
	<path class="st2" d="M564.51,100.43h12.17v14.12h-4.25c-6.59-6.66-10.01-8.24-12.67-7.79v7.79h-18.09v-7.88l-5.16-4.43l5.41-1.81
		h17.84v5.34C561.3,103.75,562.9,101.95,564.51,100.43z"/>
	<path class="st2" d="M608.11,113.19c0.81,0.43,1.56,0.88,2.27,1.36h-28.03c-0.44-1.4-0.66-2.93-0.66-4.62c0-3.77,1.26-7.01,3.6-9.5
		h9.34c-0.06,0.3-0.09,0.6-0.09,0.91c0,3.16,1.45,5.42,6.78,8.23L608.11,113.19z"/>
	<polygon class="st2" points="604.59,100.43 615.42,100.43 612.63,111.74 612.54,111.74 	"/>
	<path class="st2" d="M714.39,99.52c-0.01,0.87-0.12,2.26-0.5,4.06c-0.54,2.59-1.66,6.04-3.9,10.06H648.8
		c-2.22-4.02-3.35-7.47-3.92-10.06c-0.4-1.8-0.53-3.19-0.56-4.06H714.39z"/>
	<rect x="8.72" y="114.55" class="st3" width="19.9" height="14.11"/>
	<path class="st3" d="M56.95,114.55h0.53v14.11h-8.51C51.93,124.92,54.61,120.22,56.95,114.55z"/>
	<path class="st3" d="M86.76,128.66h-21.5c-1.54-3.08-2.42-6.64-2.42-10.59c0-1.2,0.09-2.38,0.26-3.52h15.5
		C80.79,119.27,83.72,124.37,86.76,128.66z"/>
	<path class="st3" d="M113.17,114.55c0.16,1.13,0.24,2.31,0.24,3.52c0,3.82-0.7,7.41-2.12,10.59h-10.81
		c-1.36-4-3.78-9.17-6.62-14.11H113.17z"/>
	<polygon class="st3" points="149.77,114.55 152.65,114.55 145.75,128.66 130.36,128.66 123.8,114.55 141.9,114.55 145.85,125.4 	
		"/>
	<path class="st3" d="M187.41,114.55h11.21c-2.67,4.06-7.44,7.53-14.13,10.04c1.56,1.53,3.24,2.9,5,4.07h-24.15
		c-1.24-2.85-1.93-6.09-1.93-9.68c0-1.51,0.12-2.99,0.35-4.43h13.56c1.65,3.48,3.96,6.73,6.63,9.49
		C186.1,121.27,187.15,118.24,187.41,114.55z"/>
	<rect x="231.8" y="114.55" class="st3" width="18.09" height="14.11"/>
	<rect x="262.32" y="114.55" class="st3" width="18.09" height="14.11"/>
	<rect x="291.26" y="114.55" class="st3" width="18.1" height="14.11"/>
	<path class="st3" d="M379.63,128.66h-35.31c-2.74-4.04-4.66-8.8-5.64-14.11h22.09C365.74,121.15,372.39,126.15,379.63,128.66z"/>
	<path class="st3" d="M415.85,114.55c2.19,4.72,5.12,9.82,8.16,14.11h-21.5c-1.54-3.08-2.42-6.64-2.42-10.59
		c0-1.2,0.09-2.38,0.26-3.52H415.85z"/>
	<path class="st3" d="M450.41,114.55c0.16,1.13,0.24,2.31,0.24,3.52c0,3.82-0.7,7.41-2.11,10.59h-10.82
		c-1.36-4-3.78-9.17-6.62-14.11H450.41z"/>
	<rect x="458.07" y="114.55" class="st3" width="18.09" height="14.11"/>
	<path class="st3" d="M499.15,114.55c2.19,4.72,5.12,9.82,8.16,14.11h-21.5c-1.54-3.08-2.42-6.64-2.42-10.59
		c0-1.2,0.09-2.38,0.26-3.52H499.15z"/>
	<path class="st3" d="M533.71,114.55c0.16,1.13,0.24,2.31,0.24,3.52c0,3.82-0.7,7.41-2.11,10.59h-10.82
		c-1.36-4-3.78-9.17-6.62-14.11H533.71z"/>
	<rect x="541.67" y="114.55" class="st3" width="18.09" height="14.11"/>
	<path class="st3" d="M572.43,114.55h4.25v4.43h-0.09C575.07,117.3,573.69,115.83,572.43,114.55z"/>
	<polygon class="st3" points="583.32,124.77 586.23,128.66 582.49,128.66 583.23,124.77 	"/>
	<path class="st3" d="M617.61,126.67c0,0.68-0.05,1.35-0.15,1.99h-17.82c-0.27-0.15-0.55-0.3-0.85-0.46l-5.97-3.16
		c-5.67-3-9.12-6.16-10.47-10.49h28.03C615.14,117.72,617.61,121.79,617.61,126.67z"/>
	<path class="st3" d="M709.99,113.64c-0.49,0.88-1.04,1.79-1.65,2.72c-2.28,3.51-5.41,7.36-9.7,11.39h-38.7
		c-4.19-4.03-7.27-7.88-9.52-11.39c-0.6-0.93-1.14-1.84-1.62-2.72H709.99z"/>
	<path class="st4" d="M57.48,128.66v12.3h-56v-1.45h7.24v-10.85h19.9v10.85h0.73c7.18,0,13.9-3.62,19.62-10.85H57.48z"/>
	<path class="st4" d="M111.29,128.66c-3.47,7.85-11.26,13.2-23.48,13.2c-9.5,0-18.42-4.9-22.55-13.2h21.5
		c4.03,5.69,8.25,9.95,11.18,9.95c2.44,0,3.71-1.54,3.71-4.62c0-1.27-0.43-3.12-1.17-5.33H111.29z"/>
	<polygon class="st4" points="130.36,128.66 145.75,128.66 139.07,142.32 136.71,142.32 	"/>
	<path class="st4" d="M204.85,132.73l0.09,0.09c-3.8,5.79-9.86,9.04-18.28,9.04c-9.49,0-17.73-4.91-21.32-13.2h24.15
		c4.05,2.71,8.5,4.34,12.73,4.34C203.13,133,204.03,132.91,204.85,132.73z"/>
	<polygon class="st4" points="249.89,139.51 254.41,139.51 254.41,140.96 227.27,140.96 227.27,139.51 231.8,139.51 231.8,128.66 
		249.89,128.66 	"/>
	<polygon class="st4" points="280.41,139.51 284.03,139.51 284.03,140.96 257.79,140.96 257.79,139.51 262.32,139.51 262.32,128.66 
		280.41,128.66 	"/>
	<polygon class="st4" points="309.36,139.51 313.88,139.51 313.88,140.96 287.65,140.96 287.65,139.51 291.26,139.51 291.26,128.66 
		309.36,128.66 	"/>
	<path class="st4" d="M397.46,129.29l0.09,0.09c-4.34,7.78-14.2,13.39-25.15,13.39c-12.32,0-22.13-5.33-28.08-14.11h35.31
		c3.38,1.18,6.89,1.81,10.41,1.81C392.57,130.47,395.74,130.1,397.46,129.29z"/>
	<path class="st4" d="M448.54,128.66c-3.48,7.85-11.26,13.2-23.49,13.2c-9.49,0-18.41-4.9-22.54-13.2h21.5
		c4.03,5.69,8.25,9.95,11.18,9.95c2.44,0,3.7-1.54,3.7-4.62c0-1.27-0.43-3.12-1.17-5.33H448.54z"/>
	<polygon class="st4" points="476.16,139.51 480.69,139.51 480.69,140.96 453.55,140.96 453.55,139.51 458.07,139.51 458.07,128.66 
		476.16,128.66 	"/>
	<path class="st4" d="M531.84,128.66c-3.48,7.85-11.26,13.2-23.49,13.2c-9.49,0-18.41-4.9-22.54-13.2h21.5
		c4.03,5.69,8.25,9.95,11.18,9.95c2.44,0,3.7-1.54,3.7-4.62c0-1.27-0.43-3.12-1.17-5.33H531.84z"/>
	<polygon class="st4" points="559.76,139.51 566.54,139.51 566.54,140.96 537.15,140.96 537.15,139.51 541.67,139.51 541.67,128.66 
		559.76,128.66 	"/>
	<path class="st4" d="M617.46,128.66c-1.24,8.22-10.16,13.2-20.48,13.2c-4.25,0-10.22-0.45-16.55-2.35l2.06-10.85h3.74l8.31,11.12
		c1.26,0.36,1.9,0.46,2.98,0.46c3.98,0,6.7-2.09,6.7-5.79c0-2.51-1.38-4.01-4.58-5.79H617.46z"/>
	<path class="st4" d="M698.64,127.75c-0.49,0.46-1,0.93-1.53,1.4c-4.61,4.13-10.46,8.41-17.85,12.71h-0.24
		c-7.27-4.28-13.03-8.57-17.58-12.71c-0.52-0.47-1.02-0.94-1.5-1.4H698.64z"/>
</g>
<path class="st0" d="M856.31,252.75h-60.6c3.74-4.52,9.41-7.4,15.75-7.4c5.69,0,10.84,2.33,14.55,6.08
	c3.7-3.75,8.86-6.08,14.55-6.08C846.9,245.35,852.56,248.23,856.31,252.75z"/>
<path class="st1" d="M861.05,266.86h-70.07c-0.02-0.68,0.01-1.04,0.01-1.04c0-2.72,0.53-5.31,1.5-7.69
	c0.79-1.96,1.88-3.77,3.22-5.38h60.6c1.33,1.61,2.42,3.42,3.22,5.38c0.97,2.38,1.5,4.97,1.5,7.69
	C861.03,265.82,861.07,266.18,861.05,266.86z"/>
<path class="st2" d="M861.05,266.86c-0.01,0.87-0.12,2.26-0.5,4.06c-0.54,2.59-1.66,6.04-3.9,10.06h-61.19
	c-2.22-4.02-3.35-7.47-3.92-10.06c-0.4-1.8-0.53-3.19-0.56-4.06H861.05z"/>
<path class="st3" d="M856.65,280.98c-0.49,0.88-1.04,1.79-1.65,2.72c-2.28,3.51-5.41,7.36-9.7,11.39h-38.7
	c-4.19-4.03-7.27-7.88-9.52-11.39c-0.6-0.93-1.14-1.84-1.62-2.72H856.65z"/>
<path class="st4" d="M845.3,295.09c-0.49,0.46-1,0.93-1.53,1.4c-4.61,4.13-10.46,8.41-17.85,12.71h-0.24
	c-7.27-4.28-13.03-8.57-17.58-12.71c-0.52-0.47-1.02-0.94-1.5-1.4H845.3z"/>
<g>
	<g>
		<path d="M58.36,279.72c-0.15,0.37-0.29,0.73-0.44,1.09c-2.34,5.67-5.02,10.37-7.98,14.11c-5.72,7.23-12.44,10.85-19.62,10.85
			h-0.73v-58.8l8.05-4.88h-36l8.05,4.88v58.8H2.45v1.45h56v-27.5H58.36z"/>
		<path d="M114.14,280.81c-0.79-5.9-3.59-10.72-7.83-14.12c-4.49-3.61-10.59-5.61-17.62-5.61c-6.67,0-12.39,2.11-16.65,5.61
			c-4.31,3.53-7.14,8.48-7.97,14.12c-0.17,1.14-0.26,2.32-0.26,3.52c0,3.95,0.88,7.51,2.42,10.59c4.13,8.3,13.05,13.2,22.55,13.2
			c12.22,0,20.01-5.35,23.48-13.2c1.42-3.18,2.12-6.77,2.12-10.59C114.38,283.12,114.3,281.94,114.14,280.81z M102.62,300.25
			c0,3.08-1.27,4.62-3.71,4.62c-2.93,0-7.15-4.26-11.18-9.95c-3.04-4.29-5.97-9.39-8.16-14.11c-2.26-4.87-3.73-9.32-3.73-12.04
			c0-0.79,0.11-1.49,0.32-2.08c0.52-1.51,1.68-2.35,3.3-2.35c1.4,0,3.01,0.87,4.73,2.35c3.46,2.97,7.34,8.4,10.64,14.12
			c2.84,4.94,5.26,10.11,6.62,14.11C102.19,297.13,102.62,298.98,102.62,300.25z"/>
		<path d="M149.26,262.89l5.43,3.8l0.91,0.64l-4.86,13.48l-3.92,10.85l-3.95-10.85l-4.91-13.48l0.87-0.64l5.19-3.8h-31.57l5.19,3.8
			l0.87,0.64l6.26,13.48l6.56,14.11l6.35,13.66h2.36l6.68-13.66l6.9-14.11l6.59-13.48l0.87-0.64l5.19-3.8H149.26z"/>
		<path d="M205.82,298.99c-0.82,0.18-1.72,0.27-2.63,0.27c-4.23,0-8.68-1.63-12.73-4.34c-1.76-1.17-3.44-2.54-5-4.07
			c6.69-2.51,11.46-5.98,14.13-10.04c1.67-2.52,2.52-5.26,2.52-8.15c0-2.21-0.66-4.25-1.86-5.97c-2.38-3.41-6.87-5.61-12.53-5.61
			c-6.35,0-11.63,2.11-15.55,5.61c-3.98,3.54-6.56,8.5-7.44,14.12c-0.23,1.44-0.35,2.92-0.35,4.43c0,3.59,0.69,6.83,1.93,9.68
			c3.59,8.29,11.83,13.2,21.32,13.2c8.42,0,14.48-3.25,18.28-9.04L205.82,298.99z M175.6,269.59c0-1.13,0.15-2.1,0.46-2.9
			c0.57-1.57,1.69-2.44,3.25-2.44c1.43,0,3.04,0.9,4.51,2.44c2.53,2.64,4.63,7.14,4.63,12.12c0,0.69-0.02,1.35-0.07,2
			c-0.26,3.69-1.31,6.72-3.46,9.49c-2.67-2.76-4.98-6.01-6.63-9.49C176.6,277.23,175.6,273.4,175.6,269.59z"/>
		<path d="M250.86,305.77v-45.59l-18.59,6.51l-4.66,1.63l5.16,4.43v33.02h-4.53v1.45h27.14v-1.45H250.86z M241.81,238.47
			c-6.42,0-10.04,4.07-10.04,10.04c0,1.49,0.22,2.85,0.64,4.07c1.3,3.74,4.56,6.06,9.4,6.06c4.85,0,8.1-2.32,9.4-6.06
			c0.43-1.22,0.65-2.58,0.65-4.07C251.86,242.54,248.24,238.47,241.81,238.47z"/>
		<path d="M310.33,305.77v-31.12c0-3.19-0.48-5.85-1.42-7.96c-1.78-4.01-5.22-6.06-10.25-6.06c-5.06,0-9.51,2.39-14.2,6.06
			c-1.01,0.79-2.04,1.64-3.08,2.54v-9.05l-18.59,6.51l-4.66,1.63l5.16,4.43v33.02h-4.53v1.45H285v-1.45h-3.62v-35.28
			c1.81-0.81,3.62-1.36,5.43-1.36c3.71,0,5.42,2.36,5.42,9.41v27.23h-3.61v1.45h26.23v-1.45H310.33z"/>
		<path d="M398.43,295.55c-1.72,0.81-4.89,1.18-7.42,1.18c-3.52,0-7.03-0.63-10.41-1.81c-7.24-2.51-13.89-7.51-18.86-14.11
			c-3.12-4.15-5.58-8.93-7.1-14.12c-1.1-3.79-1.71-7.8-1.71-11.94c0-0.77,0.04-1.49,0.11-2.17c0.56-5.68,3.38-8.14,6.94-8.14
			c3.57,0,7.39,1.87,12.44,8.14c2.68,3.33,5.71,7.91,9.23,14.11c1.78,3.13,3.69,6.67,5.74,10.68h0.09l2.69-10.68l3.56-14.11
			l1.71-6.78c-6.6-3.44-14.38-5.52-23.7-5.52c-11.8,0-21.19,4.53-26.86,12.3c-2.86,3.92-4.77,8.69-5.55,14.11
			c-0.28,1.85-0.42,3.79-0.42,5.79c0,2.9,0.25,5.68,0.74,8.33c0.98,5.31,2.9,10.07,5.64,14.11c5.95,8.78,15.76,14.11,28.08,14.11
			c10.95,0,20.81-5.61,25.15-13.39L398.43,295.55z"/>
		<path d="M451.38,280.81c-0.78-5.9-3.59-10.72-7.82-14.12c-4.49-3.61-10.6-5.61-17.63-5.61c-6.66,0-12.38,2.11-16.64,5.61
			c-4.31,3.53-7.14,8.48-7.97,14.12c-0.17,1.14-0.26,2.32-0.26,3.52c0,3.95,0.88,7.51,2.42,10.59c4.13,8.3,13.05,13.2,22.54,13.2
			c12.23,0,20.01-5.35,23.49-13.2c1.41-3.18,2.11-6.77,2.11-10.59C451.62,283.12,451.54,281.94,451.38,280.81z M439.86,300.25
			c0,3.08-1.26,4.62-3.7,4.62c-2.93,0-7.15-4.26-11.18-9.95c-3.04-4.29-5.97-9.39-8.16-14.11c-2.26-4.87-3.73-9.32-3.73-12.04
			c0-0.79,0.11-1.49,0.32-2.08c0.52-1.51,1.68-2.35,3.3-2.35c1.4,0,3.01,0.87,4.73,2.35c3.46,2.97,7.34,8.4,10.63,14.12
			c2.84,4.94,5.26,10.11,6.62,14.11C439.43,297.13,439.86,298.98,439.86,300.25z"/>
		<path d="M477.13,305.77v-66.4l-23.25,8.15l5.16,4.43v53.82h-4.52v1.45h27.14v-1.45H477.13z"/>
		<path d="M534.68,280.81c-0.78-5.9-3.59-10.72-7.82-14.12c-4.49-3.61-10.6-5.61-17.63-5.61c-6.66,0-12.38,2.11-16.64,5.61
			c-4.31,3.53-7.14,8.48-7.97,14.12c-0.17,1.14-0.26,2.32-0.26,3.52c0,3.95,0.88,7.51,2.42,10.59c4.13,8.3,13.05,13.2,22.54,13.2
			c12.23,0,20.01-5.35,23.49-13.2c1.41-3.18,2.11-6.77,2.11-10.59C534.92,283.12,534.84,281.94,534.68,280.81z M523.16,300.25
			c0,3.08-1.26,4.62-3.7,4.62c-2.93,0-7.15-4.26-11.18-9.95c-3.04-4.29-5.97-9.39-8.16-14.11c-2.26-4.87-3.73-9.32-3.73-12.04
			c0-0.79,0.11-1.49,0.32-2.08c0.52-1.51,1.68-2.35,3.3-2.35c1.4,0,3.01,0.87,4.73,2.35c3.46,2.97,7.34,8.4,10.63,14.12
			c2.84,4.94,5.26,10.11,6.62,14.11C522.73,297.13,523.16,298.98,523.16,300.25z"/>
		<path d="M575.93,260.99c-2.92,0-6.69,2.1-10.45,5.7c-1.61,1.52-3.21,3.32-4.75,5.34v-11.31l-17.84,5.97l-5.41,1.81l5.16,4.43
			v32.84h-4.52v1.45h29.39v-1.45h-6.78v-32.75c2.66-0.45,6.08,1.13,12.67,7.79c1.26,1.28,2.64,2.75,4.16,4.43h0.09v-23.97
			C577.1,261.08,576.56,260.99,575.93,260.99z"/>
		<path d="M611.35,280.81c-0.71-0.48-1.46-0.93-2.27-1.36l-6.79-3.62c-5.33-2.81-6.78-5.07-6.78-8.23c0-0.31,0.03-0.61,0.09-0.91
			c0.42-2.14,2.38-3.89,5.88-3.89c0.45,0,1.08,0.09,1.54,0.27l2.54,3.62l7.95,11.31h0.09l2.79-11.31l0.74-2.98
			c-4.43-1.63-9.14-2.63-15.02-2.63c-7.06,0-12.54,2.06-15.85,5.61c-2.34,2.49-3.6,5.73-3.6,9.5c0,1.69,0.22,3.22,0.66,4.62
			c1.35,4.33,4.8,7.49,10.47,10.49l5.97,3.16c0.3,0.16,0.58,0.31,0.85,0.46c3.2,1.78,4.58,3.28,4.58,5.79c0,3.7-2.72,5.79-6.7,5.79
			c-1.08,0-1.72-0.1-2.98-0.46l-8.31-11.12l-2.91-3.89h-0.09l-0.74,3.89l-2.06,10.85c6.33,1.9,12.3,2.35,16.55,2.35
			c10.32,0,19.24-4.98,20.48-13.2c0.1-0.64,0.15-1.31,0.15-1.99C618.58,288.05,616.11,283.98,611.35,280.81z"/>
	</g>
	<path d="M718.35,266.69c-0.01,0.87-0.12,2.26-0.5,4.06c-0.54,2.59-1.66,6.04-3.9,10.06c-0.49,0.88-1.04,1.79-1.65,2.72
		c-2.28,3.51-5.41,7.36-9.7,11.39c-0.49,0.46-1,0.93-1.53,1.4c-4.61,4.13-10.46,8.41-17.85,12.71c-0.04,0.02-0.08,0.05-0.12,0.07
		c-0.04-0.02-0.08-0.05-0.12-0.07c-7.27-4.28-13.03-8.57-17.58-12.71c-0.52-0.47-1.02-0.94-1.5-1.4c-4.19-4.03-7.27-7.88-9.52-11.39
		c-0.6-0.93-1.14-1.84-1.62-2.72c-2.22-4.02-3.35-7.47-3.92-10.06c-0.4-1.8-0.53-3.19-0.56-4.06c-0.02-0.68,0.01-1.04,0.01-1.04
		c0-2.72,0.53-5.31,1.5-7.69c0.79-1.96,1.88-3.77,3.22-5.38c3.74-4.52,9.41-7.4,15.75-7.4c5.69,0,10.84,2.33,14.55,6.08
		c3.7-3.75,8.86-6.08,14.55-6.08c6.34,0,12,2.88,15.75,7.4c1.33,1.61,2.42,3.42,3.22,5.38c0.97,2.38,1.5,4.97,1.5,7.69
		C718.33,265.65,718.37,266.01,718.35,266.69z"/>
</g>
</svg>
